# xmcd
#
# Track frame offsets: 
#        171
#        17711
#        36468
#        57051
#        76788
#        93533
#        110721
#        129476
#        147778
#        168386
#        181543
#        201903
#        220480
#
# Disc length: 3402 seconds
#
# Revision: 0
# Processed by: cddbd v1.5.1PL0 Copyright (c) Steve Scherf et al.
# Submitted via: ExactAudioCopy v0.95b3
#
DISCID=b20d480d
DTITLE=Lee Ann Womack - There's More Where That Came From
DYEAR=2005
DGENRE=Country
TTITLE0=There's More Where That Came From
TTITLE1=One's A Couple
TTITLE2=I may Hate Myself in The Morning
TTITLE3=The Last Time
TTITLE4=He Oughta Know That By Now
TTITLE5=Twenty Years and Two Husbands Ago
TTITLE6=Happiness
TTITLE7=When You Get to Me
TTITLE8=Painless
TTITLE9=What I Miss About Heaven
TTITLE10=Waiting For the Sun To Shine
TTITLE11=Stubborn (Psalm 151)
TTITLE12=I hope You Dance (Album Version)
EXTD=
EXTT0=
EXTT1=
EXTT2=
EXTT3=
EXTT4=
EXTT5=
EXTT6=
EXTT7=
EXTT8=
EXTT9=
EXTT10=
EXTT11=
EXTT12=
PLAYORDER=
